<?xml version="1.0" encoding="utf-8"?>
<!-- Generator: Adobe Illustrator 22.0.0, SVG Export Plug-In . SVG Version: 6.00 Build 0)  -->
<svg version="1.1" id="レイヤー_1" xmlns="http://www.w3.org/2000/svg" xmlns:xlink="http://www.w3.org/1999/xlink" x="0px"
	 y="0px" viewBox="0 0 800 800.3" style="enable-background:new 0 0 800 800.3;" xml:space="preserve">
<style type="text/css">
	.st0{fill:url(#SVGID_1_);}
	.st1{fill:url(#SVGID_2_);}
	.st2{fill:url(#SVGID_3_);}
	.st3{fill:url(#SVGID_4_);}
	.st4{fill:url(#SVGID_5_);}
	.st5{fill:#DA251D;}
	.st6{fill:url(#SVGID_6_);}
</style>
<g>
	<linearGradient id="SVGID_1_" gradientUnits="userSpaceOnUse" x1="254.7259" y1="437.793" x2="523.4709" y2="220.1677">
		<stop  offset="0" style="stop-color:#103675"/>
		<stop  offset="0.2761" style="stop-color:#0C1E3B"/>
		<stop  offset="0.589" style="stop-color:#103675"/>
		<stop  offset="0.816" style="stop-color:#0C1E3B"/>
	</linearGradient>
	<path class="st0" d="M494,196c37.4,59.5,75.1,123.2,91.4,192.3C512,418.5,407.2,482.6,400,572.5c-1.4-17.5-7.9-32.7-15.4-48.3
		c6.4-66.3,65.2-122.6,114.4-160.9c-6.2-13.8-13.2-27.3-20.7-40.5c-47.6,44.2-105.7,103-113.7,171.3
		c-40.6-48.5-91.5-82.2-149.9-105.8C242.6,270,324.8,160.2,400,67.8c20.9,25.5,44.5,55.2,63.8,81.9
		C399.5,212.1,342.3,285.1,305.1,367c12.2,9.3,20.3,15.6,31.3,26.2C371.6,317.4,429.9,248.9,494,196z"/>
</g>
<g>
	<linearGradient id="SVGID_2_" gradientUnits="userSpaceOnUse" x1="215.0786" y1="534.1312" x2="215.0786" y2="827.2223">
		<stop  offset="0" style="stop-color:#103675"/>
		<stop  offset="0.2761" style="stop-color:#0C1E3B"/>
		<stop  offset="0.589" style="stop-color:#103675"/>
		<stop  offset="0.816" style="stop-color:#0C1E3B"/>
	</linearGradient>
	<path class="st1" d="M212.4,589.9c4.5,0,9,0.8,13.3,2.4l4.8,1.8c2.2,0.8,3.7,1.2,4.6,1.2c0.7,0,1.4-0.2,2.1-0.5l2.7-1.2
		c0.4-0.2,0.8-0.3,1.2-0.3c1,0,1.5,0.7,1.5,2.2l-0.1,5.3c0,0.8,0,1.6,0.1,2.4l0.9,6.4l0.7,6c0.1,0.5,0.1,1,0.1,1.3
		c0,1.9-0.6,2.8-1.8,2.8c-0.9,0-1.5-0.8-1.9-2.5c-1.4-6.1-4.9-11.4-10.6-15.8c-5.6-4.4-11.6-6.7-17.9-6.7c-4.3,0-8.1,1.3-11.4,4
		c-3.2,2.7-4.8,5.8-4.8,9.4c0,3.4,1.4,6.2,4.3,8.7c1.8,1.6,7.5,4.1,17.1,7.7c11.4,4.2,19,8.4,22.7,12.5c4.4,4.9,6.6,10.8,6.6,17.7
		c0,7.6-3,14.3-9.1,19.9c-6.1,5.6-13.2,8.5-21.3,8.5c-3.3,0-8.6-1-15.8-3.1c-3.4-1-5.9-1.7-7.4-2c-2.2-0.4-3.5-0.8-3.9-1.1
		c-0.4-0.4-0.7-1.5-0.9-3.4c-0.2-2.1-1-5-2.2-8.9c-1.8-6-2.7-9.8-2.7-11.4c0-2.1,0.7-3.2,2.2-3.2c0.7,0,1.2,0.5,1.4,1.6
		c2.4,7.5,6.5,13.8,12.3,18.9c5.8,5.1,11.9,7.7,18.2,7.7c4.9,0,9.2-1.7,13.1-5.1c3.8-3.4,5.7-7.3,5.7-11.6c0-3.4-1-6.3-3-8.5
		c-2-2.2-5.5-4.3-10.4-6.3l-11-4.5c-10.4-4.2-17.4-8.2-21.1-11.9c-3.7-3.8-5.6-8.7-5.6-14.9c0-7.2,2.6-13.3,7.8-18.1
		C198.2,592.3,204.7,589.9,212.4,589.9z"/>
	<linearGradient id="SVGID_3_" gradientUnits="userSpaceOnUse" x1="330.7693" y1="534.1495" x2="330.7693" y2="827.2014">
		<stop  offset="0" style="stop-color:#103675"/>
		<stop  offset="0.2761" style="stop-color:#0C1E3B"/>
		<stop  offset="0.589" style="stop-color:#103675"/>
		<stop  offset="0.816" style="stop-color:#0C1E3B"/>
	</linearGradient>
	<path class="st2" d="M321.5,606.7v14.2c0,4.1,0.3,6.7,1,7.8c0.6,1.1,2.2,1.6,4.7,1.6l2.2-0.1l3.2-0.1h6.1c4.8,0,8.5-2.4,11-7.2
		l1.7-3.2c0.4-0.8,1.2-1.2,2.2-1.2c1.1,0,1.6,0.6,1.6,1.8c0,0.3-0.1,1.3-0.2,2.9c-0.1,1.1-0.2,2.1-0.2,2.9c0,1.4,0.2,4.7,0.6,9.9
		c0.3,3.4,0.4,6.3,0.4,8.8l0.1,3.4c0,0.6-0.1,1-0.2,1.2c-0.2,0.3-0.6,0.4-1.2,0.5c-1.2,0.1-2-0.7-2.2-2.5c-0.6-3.7-2.1-6.5-4.3-8.5
		c-1.2-1-2.8-1.7-4.6-2c-1.8-0.3-5.2-0.5-10.2-0.5h-4.9c-2.3,0-3.9,0.3-4.7,0.9c-0.8,0.6-1.4,1.9-1.7,3.8c-0.3,2.2-0.4,5.6-0.4,10.4
		v5.9c0,6.2,0.5,10.6,1.6,13.3c0.8,2,1.8,3.3,2.9,4c1.1,0.7,2.8,1.1,5.1,1.1c19.6,0,32.3-5.4,38.4-16.2c0.3-0.5,0.6-0.8,0.9-0.8
		c0.5-0.1,0.9,0,1.3,0.4c0.4,0.4,0.6,0.9,0.6,1.4c0,4.3-1.3,8.5-3.8,12.5c-2.1,3.4-4.8,5.9-7.9,7.3c-3.2,1.5-7.4,2.2-12.6,2.2
		c-3.1,0-6.5-0.2-10.3-0.5l-8.4-0.7c-3.1-0.3-7.2-0.4-12.5-0.4c-3.5,0-8.9,0.2-16,0.6c-2,0.1-3.4,0.2-4.3,0.2
		c-1.2,0-1.8-0.5-1.9-1.5c0-0.8,0.5-1.4,1.6-1.8c2.7-1,4.6-2,5.6-3c1-1.1,1.8-3,2.3-5.7c0.5-2.3,0.8-5.5,0.8-9.4v-52
		c0-4.9-0.9-8.2-2.6-10c-1.8-1.7-5.4-3-11-3.7c-1.3-0.2-1.9-0.8-1.9-1.9c0-1,0.8-1.5,2.4-1.5c0.3,0,1.1,0,2.2,0.1
		c0.9,0,2,0.1,3.5,0.1l7.3,0.3l27.4,0.3c15.8,0,25.5-0.2,29.1-0.6c0.4,0,0.7-0.1,1-0.1c1.4,0,2.1,0.7,2.1,2.2c0,1,0.1,2.8,0.4,5.4
		c0.4,3.8,0.6,6.5,0.6,8.2c0,3.3-0.9,5-2.8,5.1c-0.9,0-1.4-0.9-1.4-2.9c0-4.4-1.7-7.5-5.2-9.5c-3.5-2-9.1-2.9-17-2.9h-8.8l-4.9,0.5
		c-2.4,0.7-3.7,2.9-3.7,6.6L321.5,606.7z"/>
	<linearGradient id="SVGID_4_" gradientUnits="userSpaceOnUse" x1="450.8592" y1="534.1495" x2="450.8592" y2="827.2014">
		<stop  offset="0" style="stop-color:#103675"/>
		<stop  offset="0.2761" style="stop-color:#0C1E3B"/>
		<stop  offset="0.589" style="stop-color:#103675"/>
		<stop  offset="0.816" style="stop-color:#0C1E3B"/>
	</linearGradient>
	<path class="st3" d="M441.5,606.7v14.2c0,4.1,0.3,6.7,1,7.8c0.6,1.1,2.2,1.6,4.7,1.6l2.2-0.1l3.2-0.1h6.1c4.8,0,8.5-2.4,11.1-7.2
		l1.7-3.2c0.4-0.8,1.2-1.2,2.2-1.2c1.1,0,1.6,0.6,1.6,1.8c0,0.3-0.1,1.3-0.2,2.9c-0.1,1.1-0.2,2.1-0.2,2.9c0,1.4,0.2,4.7,0.7,9.9
		c0.3,3.4,0.4,6.3,0.4,8.8l0.1,3.4c0,0.6-0.1,1-0.2,1.2c-0.2,0.3-0.6,0.4-1.2,0.5c-1.2,0.1-1.9-0.7-2.2-2.5
		c-0.6-3.7-2.1-6.5-4.3-8.5c-1.3-1-2.8-1.7-4.6-2c-1.8-0.3-5.2-0.5-10.1-0.5h-4.9c-2.3,0-3.9,0.3-4.7,0.9c-0.8,0.6-1.4,1.9-1.7,3.8
		c-0.3,2.2-0.4,5.6-0.4,10.4v5.9c0,6.2,0.5,10.6,1.6,13.3c0.8,2,1.8,3.3,2.9,4c1.1,0.7,2.8,1.1,5.1,1.1c19.5,0,32.3-5.4,38.3-16.2
		c0.3-0.5,0.6-0.8,0.9-0.8c0.5-0.1,0.9,0,1.4,0.4c0.4,0.4,0.6,0.9,0.6,1.4c0,4.3-1.3,8.5-3.8,12.5c-2.1,3.4-4.8,5.9-7.9,7.3
		c-3.2,1.5-7.4,2.2-12.7,2.2c-3.1,0-6.5-0.2-10.2-0.5l-8.4-0.7c-3.1-0.3-7.3-0.4-12.5-0.4c-3.5,0-8.9,0.2-16,0.6
		c-2,0.1-3.4,0.2-4.3,0.2c-1.2,0-1.8-0.5-1.9-1.5c0-0.8,0.5-1.4,1.6-1.8c2.7-1,4.6-2,5.6-3c1-1.1,1.8-3,2.4-5.7
		c0.5-2.3,0.8-5.5,0.8-9.4v-52c0-4.9-0.9-8.2-2.6-10c-1.8-1.7-5.4-3-10.9-3.7c-1.3-0.2-1.9-0.8-1.9-1.9c0-1,0.8-1.5,2.4-1.5
		c0.3,0,1.1,0,2.2,0.1c0.9,0,2,0.1,3.5,0.1l7.3,0.3l27.4,0.3c15.7,0,25.4-0.2,29.1-0.6c0.4,0,0.7-0.1,1-0.1c1.4,0,2.1,0.7,2.1,2.2
		c0,1,0.2,2.8,0.4,5.4c0.4,3.8,0.6,6.5,0.6,8.2c0,3.3-0.9,5-2.8,5.1c-0.9,0-1.4-0.9-1.4-2.9c0-4.4-1.7-7.5-5.2-9.5
		c-3.5-2-9.1-2.9-16.9-2.9h-8.8l-4.9,0.5c-2.5,0.7-3.7,2.9-3.7,6.6L441.5,606.7z"/>
	<linearGradient id="SVGID_5_" gradientUnits="userSpaceOnUse" x1="571.4221" y1="534.1312" x2="571.4221" y2="827.2223">
		<stop  offset="0" style="stop-color:#103675"/>
		<stop  offset="0.2761" style="stop-color:#0C1E3B"/>
		<stop  offset="0.589" style="stop-color:#103675"/>
		<stop  offset="0.816" style="stop-color:#0C1E3B"/>
	</linearGradient>
	<path class="st4" d="M576.4,589.9c9,0,16.9,1.7,23.6,5.3l4.8,2.5c1,0.5,1.8,0.8,2.6,0.8c1,0,1.7-0.3,2.2-1.1l1.5-2
		c0.2-0.4,0.7-0.5,1.3-0.5c1.5,0,2.3,1.4,2.3,4.3l0.1,4.8v6l0.6,5l0.6,2.9c0.3,1.4,0.4,2.7,0.4,3.9c0,1.7-0.7,2.5-2,2.5
		c-0.8,0-1.3-0.5-1.5-1.6c-0.4-1.7-1.7-4.2-4-7.6c-2.3-3.4-4.5-6.1-6.5-8.2c-8.4-8.2-17.7-12.3-28-12.3c-9.1,0-16.5,3.4-22.2,10.2
		c-5.7,6.8-8.5,15.6-8.5,26.5c0,14.2,4.6,25.5,14,33.9c7,6.3,14.6,9.4,22.8,9.4c4.9,0,10-1.1,15.5-3.2c5.4-2.1,9.7-4.7,12.9-7.9
		l4.7-4.6c0.7-0.7,1.3-1.1,2-1.1c0.9,0,1.4,0.4,1.4,1.5c0,1.8-1.9,4.7-5.7,8.6c-10,10.2-22.3,15.4-36.9,15.4
		c-14.2,0-25.7-4.1-34.5-12.3c-8.8-8.2-13.2-18.9-13.2-32.1c0-7.2,1.7-14.3,5-21.2c3.3-6.9,7.8-12.5,13.3-16.9
		C553.6,593.4,564.2,589.9,576.4,589.9z"/>
</g>
<g>
	<path class="st5" d="M267.6,726.1l5.6,12.6c0.3,0.6,0.5,0.9,0.7,0.9c0.2,0,0.4-0.2,0.6-0.7l5.7-11.5c1.9-3.7,2.8-6.4,2.8-8.1
		c0-1.1-0.5-2-1.4-2.7c-0.6-0.5-1.6-0.8-2.9-0.9c-0.6-0.1-0.9-0.3-0.9-0.6c0-0.4,0.2-0.5,0.6-0.5c0.2,0,1.6,0.1,4.1,0.2
		c1.2,0.1,2.1,0.1,2.6,0.1c1.2,0,2.5-0.1,3.9-0.3c0.6-0.1,0.9-0.1,1-0.1c0.3,0,0.5,0.2,0.5,0.6c0,0.4-0.3,0.6-0.8,0.7
		c-0.8,0.1-1.4,0.4-1.8,0.7c-0.4,0.4-0.9,1-1.5,1.9c-0.6,1-2.4,4.7-5.5,11.2l-6.6,13.2c-0.9,1.7-1.4,2.6-1.6,2.9
		c-0.3,0.7-0.7,1-1.2,1c-0.2,0-0.4-0.1-0.5-0.2c-0.1-0.1-0.4-0.6-0.8-1.5l-0.6-1.4l-6-12.3c-1.5-3-2.7-5.7-3.7-8.1
		c-1.2-2.8-2.1-4.7-2.7-5.5c-0.7-0.9-1.7-1.5-2.9-1.8c-0.7-0.1-1-0.4-1-0.8c0-0.4,0.2-0.6,0.7-0.6c0.1,0,0.4,0,0.8,0
		c0.3,0,1.3,0.1,3.3,0.1c1.9,0.1,3.1,0.1,3.5,0.1c1,0,2,0,3.1-0.1c1.1-0.1,1.9-0.1,2.3-0.1s0.6,0.2,0.6,0.6c0,0.3-0.4,0.6-1.1,0.7
		c-1.3,0.2-1.9,0.9-1.9,2C264.8,719.3,265.8,722,267.6,726.1z"/>
	<path class="st5" d="M307.8,727.8v13c0,1.4,0.2,2.4,0.5,2.8c0.5,0.8,1.6,1.3,3.2,1.4c0.6,0,0.8,0.2,0.8,0.5c0,0.2-0.1,0.4-0.4,0.5
		s-0.8,0.1-1.5,0.1c-0.2,0-1.2-0.1-3-0.3c-1-0.1-1.7-0.1-2-0.1c-0.9,0-2.2,0.1-3.6,0.3c-0.4,0.1-0.7,0.1-0.9,0.1
		c-0.3,0-0.5-0.2-0.5-0.5c0-0.1,0.1-0.2,0.2-0.3c0.1-0.1,0.4-0.2,1-0.5c0.9-0.4,1.3-1.8,1.3-4.1V733c0-1.2-0.1-2-0.4-2.5
		c-0.3-0.5-0.8-0.7-1.5-0.7c-0.3,0-0.5,0-0.6,0c-0.5,0-0.7-0.2-0.7-0.5c0-0.2,0.1-0.4,0.3-0.5c0.2-0.1,0.6-0.2,1.2-0.4
		c2.7-0.6,4.7-1.3,6.1-2.2c0.2-0.1,0.3-0.2,0.5-0.2c0.2,0,0.3,0.1,0.3,0.4L307.8,727.8z M305.1,715.3c0.3,0,0.8,0.3,1.4,1
		c1.3,1.4,1.9,2.3,1.9,2.6c0,0.2-0.1,0.4-0.4,0.7c-0.2,0.3-0.8,1-1.7,2c-0.5,0.6-0.9,0.9-1.2,0.9c-0.2,0-0.4-0.1-0.6-0.2
		c-0.2-0.1-0.6-0.6-1.3-1.4c-0.8-0.8-1.3-1.3-1.4-1.5c-0.1-0.2-0.2-0.3-0.2-0.5c0-0.2,0.7-1.1,2.1-2.7
		C304.5,715.6,304.9,715.3,305.1,715.3z"/>
	<path class="st5" d="M334.1,726.8c2.2,0,4.2,0.7,6,2.2c0.9,0.8,1.7,1.6,2.2,2.6c0.6,1,0.9,1.9,0.9,2.8c0,0.4-0.2,0.7-0.5,0.7
		c-0.3,0-2,0.1-5.2,0.1c-1.5,0-2.8,0-3.7,0.1c-0.9,0-1.6,0.1-2.2,0.1l-1.3,0c-0.7,0-1.1,0.3-1.1,0.9c0,1.8,0.6,3.4,1.7,4.9
		c1.4,1.9,3.3,2.9,5.5,2.9c1.5,0,2.9-0.4,4.2-1.1c0.3-0.2,0.9-0.6,1.7-1.3c0.1-0.1,0.3-0.2,0.4-0.2c0.1,0,0.3,0.1,0.4,0.2
		c0.1,0.1,0.2,0.2,0.2,0.3c0,0.5-0.8,1.3-2.3,2.5c-2.2,1.6-4.5,2.5-7,2.5c-2.9,0-5.3-0.9-7.1-2.7c-1.8-1.8-2.8-4.1-2.8-7
		c0-1.3,0.3-2.7,0.8-4c0.5-1.3,1.3-2.4,2.2-3.4C329.2,727.7,331.5,726.8,334.1,726.8z M333.5,727.9c-1.3,0-2.3,0.5-3.2,1.6
		c-0.8,1.1-1.2,2.3-1.2,3.6c0,0.4,0.1,0.6,0.4,0.7c0.2,0.1,0.9,0.1,1.9,0.1c0.5,0,1.1,0,1.8,0c1.6-0.1,2.5-0.1,2.6-0.1
		c0.9,0,1.5-0.1,1.8-0.3c0.3-0.2,0.4-0.5,0.4-1c0-1.1-0.4-2-1.2-2.9C335.9,728.5,334.8,727.9,333.5,727.9z"/>
	<path class="st5" d="M363.4,729.6v11.2c0,1.4,0.2,2.3,0.7,2.8c0.4,0.5,1.2,0.8,2.4,0.8c0.4,0,1-0.1,1.7-0.3
		c0.7-0.2,1.2-0.4,1.6-0.6c0.2-0.1,0.3-0.2,0.4-0.2c0.1,0,0.2,0.1,0.3,0.2c0.1,0.2,0.1,0.3,0.1,0.4c0,0.3-0.6,0.7-1.7,1.4
		c-1.5,0.9-3.1,1.4-4.9,1.4c-2.5,0-4.1-0.6-4.9-1.9c-0.4-0.6-0.7-1.6-0.7-2.9v-12.4h-1.5c-0.5,0-0.8,0-0.9-0.1
		c-0.2-0.1-0.3-0.2-0.3-0.5c0-0.2,0.2-0.5,0.6-0.8c0.7-0.4,1.7-1.3,3.1-2.5s2.2-2.2,2.7-2.9c0.5-0.7,0.9-1.1,1.2-1.1
		c0.1,0,0.2,0.3,0.2,0.9v4.7h3.7c0.5,0,0.8,0,1-0.1c0.2-0.1,0.6-0.3,1.1-0.6c0.2-0.1,0.3-0.2,0.5-0.2c0.3,0,0.4,0.1,0.4,0.3
		c0,0.1-0.1,0.3-0.2,0.6c-0.1,0.2-0.2,0.5-0.3,1c-0.1,0.5-0.3,0.8-0.4,0.9c-0.2,0.2-0.5,0.2-0.9,0.2H363.4z"/>
	<path class="st5" d="M406.1,736.5v3.8c0,1.3,0,2.1,0.1,2.3c0,0.3,0.1,0.6,0.3,0.8c0.5,0.8,1.5,1.3,3,1.5c0.5,0.1,0.8,0.2,0.8,0.6
		c0,0.3-0.1,0.4-0.4,0.5c-0.2,0.1-0.7,0.1-1.3,0.1c-0.3,0-1.3-0.1-2.9-0.3c-0.7-0.1-1.3-0.1-1.8-0.1c-1.4,0-2.7,0.1-3.8,0.3
		c-0.4,0.1-0.7,0.1-1,0.1c-0.4,0-0.6-0.2-0.6-0.5c0-0.3,0.2-0.5,0.6-0.6c0.8-0.2,1.3-0.6,1.5-1.2c0.2-0.5,0.3-1.6,0.3-3.3v-4.5
		c0-1.9-0.4-3.4-1.1-4.5c-0.4-0.7-1-1.2-1.8-1.6c-0.7-0.4-1.6-0.6-2.4-0.6c-1.5,0-2.9,0.6-3.9,1.7c-0.3,0.3-0.5,0.6-0.6,0.9
		s-0.1,0.7-0.1,1.3v7.7c0,1.5,0.2,2.5,0.7,3c0.7,0.7,1.7,1.1,3.1,1.2c0.5,0,0.7,0.2,0.7,0.5c0,0.4-0.3,0.7-0.9,0.7s-1.2,0-2-0.1
		c-1.9-0.2-3.2-0.3-3.9-0.3c-1,0-2.1,0.1-3.4,0.2c-0.5,0.1-0.9,0.1-1.2,0.1c-0.4,0-0.6-0.1-0.6-0.5c0-0.2,0.1-0.4,0.4-0.5
		c0.9-0.3,1.5-0.6,1.7-1c0.2-0.4,0.3-1.2,0.4-2.6v-8.1c0-1.3-0.1-2-0.1-2.3c0-0.2-0.1-0.5-0.2-0.7c-0.3-0.6-0.8-0.9-1.4-0.9l-1.2,0
		c-0.3,0-0.5-0.2-0.5-0.5c0-0.3,0.1-0.5,0.4-0.6c0.3-0.1,1-0.3,2.2-0.6c1.3-0.3,2.2-0.5,2.9-0.8c0.6-0.3,1.4-0.7,2.4-1.2
		c0.1-0.1,0.2-0.1,0.3-0.1c0.2,0,0.3,0.1,0.3,0.4c0,0.1,0,0.5-0.1,1.2c0,0.3,0,0.7,0,1c0,1,0.2,1.5,0.5,1.5c0.2,0,0.4-0.2,0.8-0.6
		c0.8-0.9,1.7-1.6,2.7-2c1-0.4,2.2-0.6,3.7-0.6c3.1,0,5.3,1.2,6.5,3.7C405.8,731.8,406.1,733.8,406.1,736.5z"/>
	<path class="st5" d="M433.5,735.2c0.2-0.7,0.3-1.3,0.3-1.9c0-1.7-0.5-3.1-1.6-4.1c-0.8-0.7-1.7-1.1-2.8-1.1c-1.6,0-2.4,0.6-2.4,1.8
		c0,0.2,0,0.5,0.1,0.7c0,0.2,0.1,0.4,0.1,0.5c0,0.4-0.2,0.7-0.6,0.9c-0.7,0.4-1.8,0.6-3.2,0.6c-0.7,0-1-0.3-1-0.8
		c0-0.1,0-0.3,0.1-0.6c0.1-0.2,0.1-0.4,0.2-0.6c0.2-0.6,0.3-1.1,0.5-1.3s0.5-0.6,1-0.9c1.8-1.2,4-1.7,6.6-1.7c1.5,0,2.9,0.2,4.1,0.6
		c1.3,0.4,2.2,1,2.8,1.7c0.8,0.9,1.2,2.3,1.2,4.4c0,1.2-0.1,2.7-0.2,4.4c-0.1,1.9-0.2,3.3-0.2,4.1c0,0.8,0.2,1.4,0.5,1.7
		c0.3,0.4,0.8,0.5,1.6,0.5c0.5,0,0.8,0,1.1-0.1c0.3-0.1,0.5-0.2,0.6-0.2c0.2,0,0.3,0.1,0.3,0.3c0,0.3-0.1,0.5-0.4,0.7
		c-0.2,0.2-0.8,0.5-1.6,0.9c-1.1,0.6-2.1,0.9-2.8,0.9c-1.5,0-2.8-0.9-3.8-2.6c-3.1,1.8-5.7,2.7-7.8,2.7c-1.4,0-2.5-0.4-3.3-1.1
		c-0.8-0.7-1.2-1.8-1.2-3.1c0-2.6,1.4-4.5,4.1-5.6C427.1,736.5,429.7,735.9,433.5,735.2z M432.9,736.6c-1.5,0-2.9,0.5-4.2,1.5
		c-1.2,0.9-1.9,2-1.9,3.4c0,0.9,0.2,1.6,0.7,2.2c0.5,0.5,1.2,0.8,2,0.8c0.7,0,1.4-0.1,2.1-0.4c0.7-0.3,1.2-0.5,1.4-0.9
		c0.3-0.5,0.5-2.3,0.5-5.5v-0.5C433.6,736.8,433.4,736.6,432.9,736.6z"/>
	<path class="st5" d="M490.4,735.3v6.4c0,1.2,0.2,2,0.5,2.4c0.4,0.5,1.3,0.8,2.5,1c0.6,0.1,0.9,0.3,0.9,0.6c0,0.4-0.3,0.6-0.8,0.6
		c-0.7,0-1.9-0.1-3.6-0.4c-0.9-0.1-1.6-0.2-2.1-0.2c-0.5,0-1.6,0.1-3.3,0.3c-0.6,0.1-0.9,0.1-1,0.1c-0.3,0-0.5-0.2-0.5-0.5
		c0-0.2,0.2-0.4,0.6-0.6c0.7-0.4,1.2-0.7,1.4-1c0.2-0.3,0.3-0.8,0.3-1.5l0-1.1v-6.3c0-1.9-0.3-3.3-0.9-4.2c-0.8-1.3-2.1-1.9-3.8-1.9
		c-1.3,0-2.4,0.3-3.2,1c-0.8,0.6-1.2,1.5-1.2,2.5v8.3c0,1.5,0.2,2.4,0.5,2.9c0.5,0.7,1.5,1.1,2.9,1.2c0.6,0.1,0.9,0.3,0.9,0.6
		c0,0.4-0.4,0.6-1.2,0.6c-0.5,0-1.7-0.1-3.4-0.3c-1.1-0.1-1.9-0.2-2.5-0.2c-0.7,0-1.6,0.1-2.9,0.3c-0.5,0.1-0.9,0.1-1.2,0.1
		c-0.4,0-0.7-0.2-0.7-0.6c0-0.2,0.1-0.4,0.4-0.5c0.9-0.3,1.4-0.7,1.6-1.1c0.2-0.5,0.3-1.1,0.3-1.7l0-1v-5.9c0-1.8-0.2-3.2-0.7-4.1
		c-0.3-0.6-0.8-1.1-1.5-1.5c-0.7-0.4-1.4-0.5-2.3-0.5c-1.5,0-2.7,0.5-3.7,1.6c-0.4,0.4-0.6,0.8-0.7,1.1c-0.1,0.3-0.2,0.8-0.2,1.3
		v7.8c0,1.3,0.2,2.1,0.6,2.6c0.3,0.4,0.6,0.7,0.9,0.8c0.3,0.1,1,0.3,2.1,0.6c0.5,0.1,0.8,0.3,0.8,0.6c0,0.4-0.3,0.6-0.8,0.6
		c-0.4,0-1.7-0.1-3.7-0.3c-1-0.1-1.9-0.1-2.7-0.1c-0.9,0-1.8,0.1-2.8,0.3c-0.4,0.1-0.8,0.1-1,0.1c-0.5,0-0.8-0.2-0.8-0.5
		c0-0.2,0.2-0.4,0.5-0.5c0.8-0.4,1.3-0.7,1.5-1.2c0.2-0.4,0.3-1.4,0.3-2.9v-0.8v-6.4c0-1.9-0.1-3.1-0.4-3.6c-0.3-0.5-1-0.7-2.2-0.6
		c-0.4,0-0.7-0.2-0.7-0.5c0-0.2,0.1-0.3,0.2-0.4c0.1,0,1.1-0.3,3.1-0.9c1.3-0.4,2.1-0.6,2.6-0.8c0.5-0.2,1-0.5,1.8-0.9
		c0.2-0.1,0.3-0.1,0.4-0.1c0.3,0,0.4,0.2,0.4,0.6c0,0.1,0,0.2,0,0.5c-0.1,0.6-0.1,1.4-0.1,2.2c0,0.6,0.1,0.8,0.4,0.8
		c0.1,0,0.6-0.4,1.4-1.3c0.6-0.6,1.4-1.1,2.4-1.6c1-0.4,1.9-0.6,2.8-0.6c1.3,0,2.6,0.4,3.9,1.2c1.1,0.7,1.8,1.4,2.1,2.1
		c0.2,0.5,0.3,0.7,0.4,0.7c0.1,0,0.3-0.2,0.5-0.5c0.5-0.8,1.4-1.5,2.7-2.3c1.4-0.9,2.9-1.3,4.5-1.3c3,0,5.1,1.1,6.4,3.4
		C490.1,731.1,490.4,732.9,490.4,735.3z"/>
</g>
<g id="レイヤー_3">
	<linearGradient id="SVGID_6_" gradientUnits="userSpaceOnUse" x1="509.9329" y1="727.1525" x2="546.4639" y2="727.1525">
		<stop  offset="0" style="stop-color:#B11B15"/>
		<stop  offset="0.32" style="stop-color:#DA251D"/>
		<stop  offset="0.61" style="stop-color:#E53200"/>
		<stop  offset="0.84" style="stop-color:#B8140D"/>
	</linearGradient>
	<path class="st6" d="M530.5,755.1c0,0,3.2-18.7,16-32.3c0,0-7.4-14.3-16-23.6c0,0,5.3,19.9,0,37.8c0,0-2.3-9.7-13.9-18.5
		c0,0-4,5.1-6.7,16.2C509.9,734.7,528.4,741.8,530.5,755.1z"/>
	<g>
		<path class="st5" d="M527,716.1h3.7v0l-3,2.2l1.2,3.7l0,0l-3-2.3l-3,2.3l0,0l1.2-3.7l-3-2.2v0h3.7l1.2-3.6h0L527,716.1z"/>
	</g>
</g>
</svg>
